<svg width="19" height="15" viewBox="0 0 19 15" fill="none" xmlns="http://www.w3.org/2000/svg">
<path d="M18.3333 0.00837975C17.5353 0.571278 16.6518 1.0018 15.7167 1.28338C15.2148 0.706305 14.5478 0.29729 13.8059 0.111652C13.0639 -0.0739866 12.2829 -0.0272906 11.5684 0.245424C10.8539 0.518139 10.2404 1.00371 9.81082 1.63648C9.38127 2.26924 9.15641 3.01866 9.16667 3.78338V4.61671C7.70219 4.65469 6.25106 4.32989 4.94251 3.67125C3.63395 3.01261 2.5086 2.04058 1.66667 0.841713C1.66667 0.841713 -1.66667 8.34171 5.83333 11.675C4.11711 12.84 2.07263 13.4242 0 13.3417C7.5 17.5084 16.6667 13.3417 16.6667 3.75838C16.6659 3.52626 16.6436 3.29471 16.6 3.06671C17.4505 2.22796 18.0507 1.16897 18.3333 0.00837975Z" fill="white"/>
</svg>
