<svg width="1920" height="1374" viewBox="0 0 1920 1374" fill="none" xmlns="http://www.w3.org/2000/svg">
<path d="M0 287H1920V1087H0V287Z" fill="#171B29"/>
<mask id="mask0_4175_53" style="mask-type:alpha" maskUnits="userSpaceOnUse" x="0" y="0" width="1920" height="1374">
<path fill-rule="evenodd" clip-rule="evenodd" d="M1642 1087C1795.54 1087 1920 1211.46 1920 1365V1087H1642ZM1919.86 1374H1920V1365C1920 1368.01 1919.95 1371.01 1919.86 1374Z" fill="#171B29"/>
<path fill-rule="evenodd" clip-rule="evenodd" d="M278 287C124.465 287 0 162.535 0 9V287H278ZM0.142944 0H0V9C0 5.98853 0.0479126 2.98828 0.142944 0Z" fill="#171B29"/>
<path d="M0 287H1920V1087H0V287Z" fill="#171B29"/>
</mask>
<g mask="url(#mask0_4175_53)">
<path d="M-214 -104.275L-31.5445 1264L768.61 1264L235.22 -104.275L-214 -104.275Z" fill="url(#paint0_linear_4175_53)"/>
<path d="M934.875 1260.65L490.26 125.189L919.826 18.4215L1398.66 -95.8911L1562.36 -95.8911L1468.68 107.451L1858.54 1260.42L934.875 1260.65Z" fill="url(#paint1_linear_4175_53)"/>
<path d="M217.088 -121.043L399.166 324.659L-32.9048 1264L937.711 1264L859.577 1068.03L1400.77 -97.3756L217.088 -121.043Z" fill="#FFD100"/>
<path d="M1569.94 -142.91L849 1415L1935.1 1415L2777 -478L1569.94 -142.91Z" fill="#E20613"/>
<path d="M1400.77 -96.3245L1400.42 -97.5684L391.328 -97.5684L859.996 1069.49L1400.77 -96.3245Z" fill="url(#paint2_linear_4175_53)"/>
<path d="M-32.9048 1264H768.609L399.224 324.987L-32.9048 1264Z" fill="url(#paint3_linear_4175_53)"/>
<path d="M921 1260.65L1756.05 1260.65L1404.09 214.318L921 1260.65Z" fill="url(#paint4_linear_4175_53)"/>
</g>
<path fill-rule="evenodd" clip-rule="evenodd" d="M278 1087C124.465 1087 0 962.535 0 809V1087H278ZM0.142944 800H0V809C0 805.989 0.0479126 802.988 0.142944 800Z" fill="#0F1320"/>
<path fill-rule="evenodd" clip-rule="evenodd" d="M1642 287C1795.54 287 1920 411.465 1920 565V287H1642ZM1919.86 574H1920V565C1920 568.011 1919.95 571.012 1919.86 574Z" fill="#0F1320"/>
<defs>
<linearGradient id="paint0_linear_4175_53" x1="188.822" y1="1264" x2="188.822" y2="158.131" gradientUnits="userSpaceOnUse">
<stop stop-color="#2B3087"/>
<stop offset="0.82" stop-color="#00B4EC"/>
</linearGradient>
<linearGradient id="paint1_linear_4175_53" x1="1174.06" y1="1260.65" x2="1174.06" y2="-99.6803" gradientUnits="userSpaceOnUse">
<stop stop-color="#2B3087"/>
<stop offset="1" stop-color="#00B4EC"/>
</linearGradient>
<linearGradient id="paint2_linear_4175_53" x1="945.345" y1="1066.14" x2="945.345" y2="-97.5684" gradientUnits="userSpaceOnUse">
<stop stop-color="#009540"/>
<stop offset="1" stop-color="#26A960"/>
</linearGradient>
<linearGradient id="paint3_linear_4175_53" x1="367.852" y1="324.987" x2="367.852" y2="1264" gradientUnits="userSpaceOnUse">
<stop stop-color="#3FAE6C"/>
<stop offset="1" stop-color="#006633"/>
</linearGradient>
<linearGradient id="paint4_linear_4175_53" x1="921" y1="737.586" x2="1756.05" y2="737.586" gradientUnits="userSpaceOnUse">
<stop stop-color="#164194"/>
<stop offset="1" stop-color="#005CA9"/>
</linearGradient>
</defs>
</svg>
