<svg width="649" height="384" viewBox="0 0 649 384" fill="none" xmlns="http://www.w3.org/2000/svg">
<path d="M0 171.996L78.6646 384H253.846L158.95 140.308L0 171.996Z" fill="url(#paint0_linear_19_300)"/>
<path d="M0 171.996L78.6646 384H253.846L158.95 140.308L0 171.996Z" fill="url(#paint1_linear_19_300)"/>
<path d="M290.257 383.077L192.923 133.054L286.962 109.544L391.783 83.5385L492.461 383.027L290.257 383.077Z" fill="url(#paint2_linear_19_300)"/>
<path d="M192.983 132.987L78.4619 384H253.914L392.308 83.5385L192.983 132.987Z" fill="#FFD100"/>
<path d="M435.555 68.1918L290.308 383.077H492.327L648.923 0L435.555 68.1918Z" fill="#E20613"/>
<path d="M391.846 84.2742L391.771 83.9999L192.923 133.298L273.739 340.615L391.846 84.2742Z" fill="url(#paint3_linear_19_300)"/>
<path d="M78.4619 384H253.847L173.019 176.769L78.4619 384Z" fill="url(#paint4_linear_19_300)"/>
<path d="M290.308 383.077H492.461L407.257 129.692L290.308 383.077Z" fill="url(#paint5_linear_19_300)"/>
<defs>
<linearGradient id="paint0_linear_19_300" x1="126.911" y1="384" x2="126.911" y2="140.333" gradientUnits="userSpaceOnUse">
<stop stop-color="#2B3087"/>
<stop offset="0.82" stop-color="#00B4EC"/>
</linearGradient>
<linearGradient id="paint1_linear_19_300" x1="126.86" y1="384" x2="126.86" y2="139.627" gradientUnits="userSpaceOnUse">
<stop stop-color="#2B3087"/>
<stop offset="1" stop-color="#118FB7"/>
</linearGradient>
<linearGradient id="paint2_linear_19_300" x1="342.617" y1="383.077" x2="342.617" y2="83.5385" gradientUnits="userSpaceOnUse">
<stop stop-color="#2B3087"/>
<stop offset="1" stop-color="#00B4EC"/>
</linearGradient>
<linearGradient id="paint3_linear_19_300" x1="292.397" y1="340.615" x2="292.397" y2="83.9999" gradientUnits="userSpaceOnUse">
<stop stop-color="#009540"/>
<stop offset="1" stop-color="#26A960"/>
</linearGradient>
<linearGradient id="paint4_linear_19_300" x1="166.154" y1="176.769" x2="166.154" y2="384" gradientUnits="userSpaceOnUse">
<stop stop-color="#3FAE6C"/>
<stop offset="1" stop-color="#006633"/>
</linearGradient>
<linearGradient id="paint5_linear_19_300" x1="290.308" y1="256.41" x2="492.461" y2="256.41" gradientUnits="userSpaceOnUse">
<stop stop-color="#164194"/>
<stop offset="1" stop-color="#005CA9"/>
</linearGradient>
</defs>
</svg>
