<svg width="48" height="30" viewBox="0 0 48 30" fill="none" xmlns="http://www.w3.org/2000/svg">
<path d="M8.89937 10.7179H0L9.39378 29.9999H18.2932L8.89937 10.7179Z" fill="#0B92D2"/>
<path d="M27.1923 5.7738H18.293L28.346 29.9999H37.2453L27.1923 5.7738Z" fill="#137BC0"/>
<path d="M18.293 5.7738H27.1924L18.293 29.9999H9.39363L18.293 5.7738Z" fill="#0E763F"/>
<path fill-rule="evenodd" clip-rule="evenodd" d="M13.2192 19.5854L9.39355 29.9998H18.2929L13.2192 19.5854Z" fill="#FFD100"/>
<path fill-rule="evenodd" clip-rule="evenodd" d="M9.39355 29.9998H18.2929L13.2192 19.5854L9.39355 29.9998Z" fill="#FFD100"/>
<path d="M38.399 0.500122H47.2983L37.0805 29.9999H28.1812L38.399 0.500122Z" fill="#E20613"/>
<path fill-rule="evenodd" clip-rule="evenodd" d="M32.3049 18.0944L28.2561 29.7835L28.346 30H37.2453L37.1555 29.7835L32.3049 18.0944Z" fill="#0E4B9C"/>
<path fill-rule="evenodd" clip-rule="evenodd" d="M37.0805 30L37.1555 29.7835L32.3049 18.0944L28.2561 29.7835L28.1812 30H37.0805Z" fill="#0E4B9C"/>
</svg>
