<svg width="127" height="22" viewBox="0 0 127 22" fill="none" xmlns="http://www.w3.org/2000/svg">
<path d="M6.88008 5.104H0V1.232H18.7359V5.104H11.8559V21.7653H6.88008V5.104Z" fill="white"/>
<path d="M27.2585 22C25.518 22 23.9516 21.6578 22.5592 20.9733C21.1873 20.2693 20.1123 19.3013 19.3341 18.0693C18.556 16.8373 18.167 15.4391 18.167 13.8747C18.167 12.3102 18.556 10.912 19.3341 9.68C20.1123 8.448 21.1873 7.48978 22.5592 6.80533C23.9516 6.10133 25.518 5.74933 27.2585 5.74933C28.999 5.74933 30.5552 6.10133 31.9272 6.80533C33.2991 7.48978 34.3741 8.448 35.1522 9.68C35.9303 10.912 36.3193 12.3102 36.3193 13.8747C36.3193 15.4391 35.9303 16.8373 35.1522 18.0693C34.3741 19.3013 33.2991 20.2693 31.9272 20.9733C30.5552 21.6578 28.999 22 27.2585 22ZM27.2585 18.2453C28.4871 18.2453 29.4905 17.8542 30.2686 17.072C31.0671 16.2702 31.4664 15.2044 31.4664 13.8747C31.4664 12.5449 31.0671 11.4889 30.2686 10.7067C29.4905 9.90489 28.4871 9.504 27.2585 9.504C26.0299 9.504 25.0164 9.90489 24.2178 10.7067C23.4192 11.4889 23.0199 12.5449 23.0199 13.8747C23.0199 15.2044 23.4192 16.2702 24.2178 17.072C25.0164 17.8542 26.0299 18.2453 27.2585 18.2453Z" fill="white"/>
<path d="M46.6171 15.576L44.3135 17.7467V21.7653H39.5221V0H44.3135V12.32L51.3165 5.984H57.0294L50.1493 12.672L57.6437 21.7653H51.8386L46.6171 15.576Z" fill="white"/>
<path d="M69.7222 5.74933C71.7699 5.74933 73.4182 6.336 74.6673 7.50933C75.9368 8.68267 76.5716 10.4231 76.5716 12.7307V21.7653H71.7801V13.4347C71.7801 12.1831 71.4935 11.2542 70.9201 10.648C70.3468 10.0222 69.5175 9.70933 68.4322 9.70933C67.2241 9.70933 66.2617 10.0711 65.545 10.7947C64.8284 11.4987 64.47 12.5547 64.47 13.9627V21.7653H59.6786V5.984H64.255V7.832C64.8898 7.16711 65.6781 6.65867 66.6201 6.30667C67.562 5.93511 68.596 5.74933 69.7222 5.74933Z" fill="white"/>
<path d="M97.2814 13.9333C97.2814 13.992 97.2507 14.4027 97.1893 15.1653H84.6884C84.9137 16.1431 85.4461 16.9156 86.2856 17.4827C87.1251 18.0498 88.1694 18.3333 89.4185 18.3333C90.2785 18.3333 91.0361 18.216 91.6914 17.9813C92.3671 17.7271 92.9916 17.336 93.565 16.808L96.1143 19.448C94.5581 21.1493 92.2852 22 89.2956 22C87.4323 22 85.7839 21.6578 84.3506 20.9733C82.9172 20.2693 81.8115 19.3013 81.0334 18.0693C80.2553 16.8373 79.8662 15.4391 79.8662 13.8747C79.8662 12.3298 80.245 10.9413 81.0027 9.70933C81.7808 8.45778 82.8353 7.48978 84.1663 6.80533C85.5177 6.10133 87.0227 5.74933 88.6813 5.74933C90.299 5.74933 91.763 6.08178 93.0735 6.74667C94.384 7.41156 95.4078 8.36978 96.145 9.62133C96.9026 10.8533 97.2814 12.2907 97.2814 13.9333ZM88.712 9.21067C87.6268 9.21067 86.7156 9.504 85.9784 10.0907C85.2413 10.6773 84.7908 11.4791 84.627 12.496H92.7664C92.6026 11.4987 92.1521 10.7067 91.4149 10.12C90.6778 9.51378 89.7768 9.21067 88.712 9.21067Z" fill="white"/>
<path d="M105.048 8.06667C105.621 7.304 106.389 6.72711 107.352 6.336C108.334 5.94489 109.461 5.74933 110.73 5.74933V9.97333C110.198 9.93422 109.839 9.91467 109.655 9.91467C108.283 9.91467 107.208 10.2862 106.43 11.0293C105.652 11.7529 105.263 12.848 105.263 14.3147V21.7653H100.471V5.984H105.048V8.06667Z" fill="white"/>
<path d="M119.198 22C117.827 22 116.485 21.8436 115.175 21.5307C113.864 21.1982 112.82 20.7876 112.042 20.2987L113.639 17.0133C114.376 17.4631 115.267 17.8347 116.311 18.128C117.356 18.4018 118.379 18.5387 119.383 18.5387C121.41 18.5387 122.424 18.0596 122.424 17.1013C122.424 16.6516 122.147 16.3289 121.594 16.1333C121.041 15.9378 120.192 15.7716 119.045 15.6347C117.693 15.4391 116.577 15.2142 115.697 14.96C114.817 14.7058 114.049 14.256 113.393 13.6107C112.759 12.9653 112.441 12.0462 112.441 10.8533C112.441 9.856 112.738 8.976 113.332 8.21334C113.946 7.43111 114.827 6.82489 115.973 6.39467C117.141 5.96445 118.513 5.74933 120.089 5.74933C121.256 5.74933 122.413 5.87645 123.56 6.13067C124.727 6.36533 125.69 6.69778 126.447 7.128L124.85 10.384C123.396 9.60178 121.809 9.21067 120.089 9.21067C119.065 9.21067 118.298 9.34756 117.786 9.62133C117.274 9.89511 117.018 10.2471 117.018 10.6773C117.018 11.1662 117.294 11.5084 117.847 11.704C118.4 11.8996 119.28 12.0853 120.489 12.2613C121.84 12.4764 122.946 12.7111 123.806 12.9653C124.666 13.2 125.413 13.64 126.048 14.2853C126.683 14.9307 127 15.8302 127 16.984C127 17.9618 126.693 18.832 126.079 19.5947C125.464 20.3573 124.563 20.9538 123.376 21.384C122.209 21.7947 120.816 22 119.198 22Z" fill="white"/>
</svg>
